<svg xmlns="http://www.w3.org/2000/svg" viewBox="0 0 1500 1500"><defs><style>.cls-1{fill:#fff;}</style></defs><g id="Layer_2" data-name="Layer 2"><g id="Layer_10" data-name="Layer 10"><circle class="cls-1" cx="750" cy="750" r="750"/><path d="M750,1474.64A724.83,724.83,0,0,1,467.93,82.31a724.83,724.83,0,0,1,564.14,1335.38A720.15,720.15,0,0,1,750,1474.64ZM750,59.35c-184.48,0-357.92,71.84-488.36,202.29S59.35,565.52,59.35,750s71.84,357.92,202.29,488.36S565.52,1440.65,750,1440.65s357.92-71.84,488.36-202.29S1440.65,934.48,1440.65,750s-71.84-357.92-202.29-488.36S934.48,59.35,750,59.35Z"/><path d="M892.08,792.18c0,224.28-94.94,280.88-287.34,376.18,24.72,16.48,58,36.19,114.65,63.06C867.72,1161.2,1011,1069.12,1011,823.7V306H892.08V792.18ZM779.22,306H427.76V408.82H660.63V738.08c0,150.47-9,164.44-204.57,252.58a355.06,355.06,0,0,0,59.12,98.52c221.05-98.52,264-149.4,264-319.93Z"/></g></g></svg>